<svg xmlns="http://www.w3.org/2000/svg" xmlns:xlink="http://www.w3.org/1999/xlink" width="150" zoomAndPan="magnify" viewBox="0 0 112.5 112.499997" height="150" preserveAspectRatio="xMidYMid meet" version="1.2"><defs><clipPath id="0f6b15af29"><path d="M 0 3.554688 L 35.839844 3.554688 L 35.839844 77.476562 L 0 77.476562 Z M 0 3.554688 "/></clipPath></defs><g id="5a20b1b476"><g clip-rule="nonzero" clip-path="url(#0f6b15af29)"><path style=" stroke:none;fill-rule:evenodd;fill:#30af7e;fill-opacity:1;" d="M 35.160156 77.476562 L 19.324219 77.476562 C 19.769531 74.535156 19.769531 70.445312 18.949219 67.523438 C 18.515625 65.984375 17.773438 65.140625 16.335938 65.867188 C 9.589844 69.273438 7.820312 66.375 7.425781 65.53125 C 6.910156 64.429688 7.140625 63.417969 7.0625 62.4375 C 6.863281 59.875 6.324219 59.871094 6.109375 59.757812 C 5.195312 59.285156 5.171875 56.898438 6.449219 56.171875 C 7.726562 55.441406 8.457031 54.046875 7.972656 52.609375 C 7.542969 51.359375 6.90625 50.511719 5.242188 49.820312 C 4.363281 49.449219 3.792969 48.640625 3.792969 47.996094 C 3.792969 47.972656 3.792969 47.957031 3.792969 47.933594 C 3.792969 47.933594 3.707031 47.585938 4.082031 46.882812 C 4.449219 46.191406 4.328125 45.136719 4.328125 45.136719 C 3.863281 44.523438 1.824219 44.574219 0.652344 43.492188 C 0.0820312 42.957031 0.0078125 42.398438 0.0546875 41.917969 C 0.140625 41.003906 1.039062 39.808594 2.339844 37.945312 C 2.851562 37.21875 3.59375 35.949219 4.402344 34.769531 C 4.996094 33.914062 5.699219 33.097656 5.980469 32.582031 C 6.589844 31.5 5.933594 29.636719 5.734375 29.050781 C 5.515625 28.40625 5.386719 27.058594 5.925781 25.308594 C 5.925781 25.308594 7.917969 18.019531 9.222656 15.679688 C 10.527344 13.332031 13.394531 7.867188 22.757812 5.089844 C 26.347656 4.03125 30.054688 3.554688 33.671875 3.621094 C 26.734375 6.683594 24.339844 11.234375 23.15625 13.347656 C 21.804688 15.785156 19.722656 23.386719 19.722656 23.386719 C 19.160156 25.210938 19.296875 26.613281 19.523438 27.285156 C 19.730469 27.894531 20.414062 29.839844 19.78125 30.972656 C 19.484375 31.511719 18.757812 32.359375 18.136719 33.25 C 17.292969 34.476562 16.511719 35.8125 15.984375 36.5625 C 14.628906 38.503906 13.691406 39.746094 13.597656 40.699219 C 13.550781 41.199219 13.632812 41.785156 14.226562 42.335938 C 15.445312 43.46875 17.574219 43.410156 18.054688 44.054688 C 18.054688 44.054688 18.183594 45.148438 17.796875 45.875 C 17.410156 46.609375 17.496094 46.964844 17.496094 46.964844 C 17.4375 48.382812 19.167969 48.988281 19.167969 48.988281 C 18.582031 49.328125 17.789062 50.785156 18.644531 51.660156 C 19.507812 52.527344 19.953125 53.285156 19.847656 53.898438 C 19.507812 55.960938 18.242188 58.480469 20 60.3125 C 21.820312 62.203125 25.835938 61.882812 30.359375 62.375 C 32.042969 62.550781 33.0625 63.433594 33.367188 64.558594 C 33.519531 65.121094 33.367188 65.9375 33.285156 66.363281 C 33.050781 67.648438 33.742188 69.207031 33.742188 69.207031 C 35.378906 72.519531 35.238281 76.402344 35.160156 77.476562 Z M 35.160156 77.476562 "/></g><g style="fill:#30af7e;fill-opacity:1;"><g transform="translate(5.961786, 96.218435)"><path style="stroke:none" d="M 12.75 -4.046875 L 4.828125 -4.046875 L 3.359375 0 L 0.859375 0 L 7.421875 -18.0625 L 10.171875 -18.0625 L 16.703125 0 L 14.203125 0 Z M 12.0625 -5.96875 L 8.78125 -15.140625 L 5.5 -5.96875 Z M 12.0625 -5.96875 "/></g></g><g style="fill:#30af7e;fill-opacity:1;"><g transform="translate(23.528771, 96.218435)"><path style="stroke:none" d="M 4.375 -18.171875 L 4.375 0 L 2 0 L 2 -18.171875 Z M 4.375 -18.171875 "/></g></g><g style="fill:#393939;fill-opacity:1;"><g transform="translate(29.948924, 96.218435)"><path style="stroke:none" d="M 4.375 -11.65625 C 4.84375 -12.46875 5.539062 -13.144531 6.46875 -13.6875 C 7.40625 -14.238281 8.488281 -14.515625 9.71875 -14.515625 C 10.988281 -14.515625 12.140625 -14.207031 13.171875 -13.59375 C 14.203125 -12.988281 15.015625 -12.132812 15.609375 -11.03125 C 16.203125 -9.925781 16.5 -8.644531 16.5 -7.1875 C 16.5 -5.75 16.203125 -4.460938 15.609375 -3.328125 C 15.015625 -2.203125 14.203125 -1.328125 13.171875 -0.703125 C 12.140625 -0.078125 10.988281 0.234375 9.71875 0.234375 C 8.5 0.234375 7.425781 -0.0351562 6.5 -0.578125 C 5.570312 -1.128906 4.863281 -1.8125 4.375 -2.625 L 4.375 6.78125 L 2 6.78125 L 2 -14.28125 L 4.375 -14.28125 Z M 14.078125 -7.1875 C 14.078125 -8.269531 13.859375 -9.207031 13.421875 -10 C 12.984375 -10.800781 12.394531 -11.410156 11.65625 -11.828125 C 10.925781 -12.242188 10.113281 -12.453125 9.21875 -12.453125 C 8.351562 -12.453125 7.550781 -12.238281 6.8125 -11.8125 C 6.070312 -11.394531 5.476562 -10.78125 5.03125 -9.96875 C 4.59375 -9.15625 4.375 -8.222656 4.375 -7.171875 C 4.375 -6.085938 4.59375 -5.140625 5.03125 -4.328125 C 5.476562 -3.523438 6.070312 -2.910156 6.8125 -2.484375 C 7.550781 -2.054688 8.351562 -1.84375 9.21875 -1.84375 C 10.113281 -1.84375 10.925781 -2.054688 11.65625 -2.484375 C 12.394531 -2.910156 12.984375 -3.523438 13.421875 -4.328125 C 13.859375 -5.140625 14.078125 -6.09375 14.078125 -7.1875 Z M 14.078125 -7.1875 "/></g></g><g style="fill:#393939;fill-opacity:1;"><g transform="translate(47.568035, 96.218435)"><path style="stroke:none" d="M 1.125 -7.1875 C 1.125 -8.644531 1.414062 -9.925781 2 -11.03125 C 2.59375 -12.132812 3.40625 -12.988281 4.4375 -13.59375 C 5.476562 -14.207031 6.628906 -14.515625 7.890625 -14.515625 C 9.140625 -14.515625 10.222656 -14.242188 11.140625 -13.703125 C 12.066406 -13.171875 12.757812 -12.492188 13.21875 -11.671875 L 13.21875 -14.28125 L 15.609375 -14.28125 L 15.609375 0 L 13.21875 0 L 13.21875 -2.65625 C 12.75 -1.820312 12.046875 -1.128906 11.109375 -0.578125 C 10.179688 -0.0351562 9.101562 0.234375 7.875 0.234375 C 6.601562 0.234375 5.453125 -0.078125 4.421875 -0.703125 C 3.398438 -1.328125 2.59375 -2.203125 2 -3.328125 C 1.414062 -4.460938 1.125 -5.75 1.125 -7.1875 Z M 13.21875 -7.171875 C 13.21875 -8.242188 13 -9.179688 12.5625 -9.984375 C 12.125 -10.785156 11.535156 -11.394531 10.796875 -11.8125 C 10.054688 -12.238281 9.242188 -12.453125 8.359375 -12.453125 C 7.472656 -12.453125 6.664062 -12.242188 5.9375 -11.828125 C 5.207031 -11.410156 4.625 -10.800781 4.1875 -10 C 3.757812 -9.207031 3.546875 -8.269531 3.546875 -7.1875 C 3.546875 -6.09375 3.757812 -5.140625 4.1875 -4.328125 C 4.625 -3.523438 5.207031 -2.910156 5.9375 -2.484375 C 6.664062 -2.054688 7.472656 -1.84375 8.359375 -1.84375 C 9.242188 -1.84375 10.054688 -2.054688 10.796875 -2.484375 C 11.535156 -2.910156 12.125 -3.523438 12.5625 -4.328125 C 13 -5.140625 13.21875 -6.085938 13.21875 -7.171875 Z M 13.21875 -7.171875 "/></g></g><g style="fill:#393939;fill-opacity:1;"><g transform="translate(65.187145, 96.218435)"><path style="stroke:none" d="M 4.90625 -12.328125 L 4.90625 -3.90625 C 4.90625 -3.207031 5.050781 -2.710938 5.34375 -2.421875 C 5.632812 -2.140625 6.144531 -2 6.875 -2 L 8.625 -2 L 8.625 0 L 6.484375 0 C 5.171875 0 4.179688 -0.300781 3.515625 -0.90625 C 2.859375 -1.519531 2.53125 -2.519531 2.53125 -3.90625 L 2.53125 -12.328125 L 0.671875 -12.328125 L 0.671875 -14.28125 L 2.53125 -14.28125 L 2.53125 -17.875 L 4.90625 -17.875 L 4.90625 -14.28125 L 8.625 -14.28125 L 8.625 -12.328125 Z M 4.90625 -12.328125 "/></g></g><g style="fill:#393939;fill-opacity:1;"><g transform="translate(74.674359, 96.218435)"><path style="stroke:none" d="M 9.09375 -14.546875 C 10.175781 -14.546875 11.148438 -14.3125 12.015625 -13.84375 C 12.878906 -13.382812 13.554688 -12.695312 14.046875 -11.78125 C 14.546875 -10.863281 14.796875 -9.742188 14.796875 -8.421875 L 14.796875 0 L 12.453125 0 L 12.453125 -8.078125 C 12.453125 -9.503906 12.097656 -10.59375 11.390625 -11.34375 C 10.679688 -12.101562 9.707031 -12.484375 8.46875 -12.484375 C 7.21875 -12.484375 6.222656 -12.09375 5.484375 -11.3125 C 4.742188 -10.53125 4.375 -9.390625 4.375 -7.890625 L 4.375 0 L 2 0 L 2 -19.28125 L 4.375 -19.28125 L 4.375 -12.25 C 4.84375 -12.976562 5.488281 -13.539062 6.3125 -13.9375 C 7.144531 -14.34375 8.070312 -14.546875 9.09375 -14.546875 Z M 9.09375 -14.546875 "/></g></g><g style="fill:#393939;fill-opacity:1;"><g transform="translate(91.355173, 96.218435)"><path style="stroke:none" d="M 14.3125 -14.28125 L 5.703125 6.71875 L 3.25 6.71875 L 6.078125 -0.15625 L 0.3125 -14.28125 L 2.9375 -14.28125 L 7.421875 -2.703125 L 11.859375 -14.28125 Z M 14.3125 -14.28125 "/></g></g></g></svg>